<?xml version="1.0" encoding="UTF-8" standalone="no"?>
<!-- Created with Inkscape (http://www.inkscape.org/) -->

<svg
   xmlns:dc="http://purl.org/dc/elements/1.1/"
   xmlns:cc="http://creativecommons.org/ns#"
   xmlns:rdf="http://www.w3.org/1999/02/22-rdf-syntax-ns#"
   xmlns:svg="http://www.w3.org/2000/svg"
   xmlns="http://www.w3.org/2000/svg"
   xmlns:sodipodi="http://sodipodi.sourceforge.net/DTD/sodipodi-0.dtd"
   xmlns:inkscape="http://www.inkscape.org/namespaces/inkscape"
   width="78.936325mm"
   height="35.407242mm"
   viewBox="0 0 279.69564 125.45873"
   id="svg4171"
   version="1.1"
   inkscape:version="0.91 r13725"
   sodipodi:docname="jaddah-motors-logo.svg">
  <defs
     id="defs4173" />
  <sodipodi:namedview
     id="base"
     pagecolor="#ffffff"
     bordercolor="#666666"
     borderopacity="1.0"
     inkscape:pageopacity="0.0"
     inkscape:pageshadow="2"
     inkscape:zoom="1"
     inkscape:cx="293.54904"
     inkscape:cy="-202.46048"
     inkscape:document-units="px"
     inkscape:current-layer="layer1"
     showgrid="false"
     fit-margin-top="0.4"
     fit-margin-left="0.4"
     fit-margin-right="0.4"
     fit-margin-bottom="0.4"
     inkscape:showpageshadow="false"
     showborder="true"
     borderlayer="true"
     inkscape:window-width="1920"
     inkscape:window-height="1017"
     inkscape:window-x="1272"
     inkscape:window-y="32"
     inkscape:window-maximized="1" />
  <metadata
     id="metadata4176">
    <rdf:RDF>
      <cc:Work
         rdf:about="">
        <dc:format>image/svg+xml</dc:format>
        <dc:type
           rdf:resource="http://purl.org/dc/dcmitype/StillImage" />
        <dc:title />
      </cc:Work>
    </rdf:RDF>
  </metadata>
  <g
     inkscape:label="Layer 1"
     inkscape:groupmode="layer"
     id="layer1"
     transform="translate(-11.75772,-9.9185619)">
    <path
       id="path4254"
       style="opacity:1;fill:#ffffff;fill-opacity:1;stroke:none;stroke-width:0.69999999;stroke-linejoin:miter;stroke-miterlimit:4;stroke-dasharray:none;stroke-dashoffset:0;stroke-opacity:0.88757396"
       d="m 250.02757,35.921239 a 20.668791,11.390307 0 0 0 -20.66875,11.390217 20.668791,11.390307 0 0 0 20.66875,11.390216 20.668791,11.390307 0 0 0 14.64214,-3.362416 20.668791,9.6289189 0 0 1 -11.39087,1.600937 20.668791,9.6289189 0 0 1 -20.66875,-9.628737 20.668791,9.6289189 0 0 1 20.66875,-9.629059 20.668791,9.6289189 0 0 1 11.4058,1.606073 20.668791,11.390307 0 0 0 -14.65707,-3.367231 z M 49.881603,37.548468 a 22.279955,12.141323 0 0 0 -22.27991,12.141227 22.279955,12.141323 0 0 0 22.27991,12.141226 22.279955,12.141323 0 0 0 15.78352,-3.584115 22.279955,10.263798 0 0 1 -12.27881,1.706493 22.279955,10.263798 0 0 1 -22.27991,-10.263604 22.279955,10.263798 0 0 1 22.27991,-10.263947 22.279955,10.263798 0 0 1 12.29489,1.71197 22.279955,12.141323 0 0 0 -15.7996,-3.58925 z m 5.07892,-13.459667 c -2.87754,-1.831163 17.95192,-6.434979 39.651307,-5.66447 21.69939,0.77051 54.16648,16.63938 54.16648,16.63938 0,0 -75.006077,-2.628457 -82.134797,-3.540292 -7.12873,-0.911835 -11.68299,-7.434618 -11.68299,-7.434618 z m -41.77545,-1.416117 c 0,0 49.87471,-10.958566 80.010647,-11.328942 30.13591,-0.370374 41.10738,12.456743 66.55751,15.223266 25.45012,2.766523 47.28605,-3.607605 85.32107,-0.708059 38.03504,2.899545 44.96174,25.490114 44.96174,25.490114 0,0 -14.73499,-16.016913 -43.62693,-20.222948 -28.01565,-4.078469 -63.46854,4.400629 -82.40754,2.875507 -34.3052,-2.762531 -30.52951,-15.83103 -70.45182,-19.117584 -39.922307,-3.286555 -44.655827,10.906865 -63.017227,11.32894 -18.3614,0.422076 -17.34745,-3.540294 -17.34745,-3.540294 z m 204.817137,28.161475 -10.37583,0 -2.52143,8.432005 -5.51145,0 5.6007,-18.872225 5.53378,0 -2.18673,7.286267 10.39814,0 2.16442,-7.286267 5.51146,0 -5.60073,18.872225 -5.51146,0 2.49913,-8.432005 z m -27.95893,4.261064 -10.64358,0 -3.21315,4.170941 -5.66765,0 15.17323,-18.872225 6.11393,0 4.35114,18.872225 -5.22138,0 -0.89254,-4.170941 z m -0.69173,-3.141082 -1.53963,-7.595237 -5.91309,7.595237 7.45272,0 z m -43.82387,7.312023 5.6007,-18.872225 7.22961,0 q 3.771,0 5.10982,0.180231 2.25367,0.321826 3.92718,1.274445 1.69583,0.952618 2.67764,2.548914 0.98179,1.583413 0.98179,3.81049 0,2.342928 -1.00412,4.338288 -1.0041,1.98249 -2.83382,3.47578 -1.8074,1.480432 -3.74867,2.162722 -1.9413,0.669406 -4.06109,0.913992 -1.38343,0.167363 -4.41809,0.167363 l -9.46095,0 z m 6.42631,-3.038104 2.7892,0 q 3.05695,0 4.2842,-0.244587 1.60659,-0.308954 3.01233,-1.261586 1.40576,-0.96549 2.43219,-2.664767 1.02642,-1.712147 1.02642,-3.952094 0,-1.853755 -0.84791,-2.909355 -0.82561,-1.055612 -2.23136,-1.428934 -1.0041,-0.257472 -3.50323,-0.257472 l -3.19084,0 -3.771,12.718795 z m -33.47039,3.038104 5.6007,-18.872225 7.22961,0 q 3.771,0 5.10982,0.180231 2.25367,0.321826 3.92719,1.274445 1.69582,0.952618 2.67763,2.548914 0.9818,1.583413 0.9818,3.81049 0,2.342928 -1.00412,4.338288 -1.0041,1.98249 -2.83382,3.47578 -1.8074,1.480432 -3.74868,2.162722 -1.94129,0.669406 -4.06108,0.913992 -1.38344,0.167363 -4.4181,0.167363 l -9.46095,0 z m 6.42631,-3.038104 2.78921,0 q 3.05695,0 4.28419,-0.244587 1.6066,-0.308954 3.01234,-1.261586 1.40576,-0.96549 2.43218,-2.664767 1.02643,-1.712147 1.02643,-3.952094 0,-1.853755 -0.84792,-2.909355 -0.8256,-1.055612 -2.23136,-1.428934 -1.0041,-0.257472 -3.50322,-0.257472 l -3.19085,0 -3.771,12.718795 z m -15.99884,-1.132837 -10.6436,0 -3.21315,4.170941 -5.66765,0 15.17325,-18.872225 6.11392,0 4.35115,18.872225 -5.22137,0 -0.89255,-4.170941 z m -0.69172,-3.141082 -1.53964,-7.595237 -5.91311,7.595237 7.45275,0 z m -22.224337,-11.560202 5.422187,0 -3.39165,11.431465 q -1.40576,4.775978 -3.726387,6.269282 -2.29828,1.493303 -6.56017,1.493303 -3.70406,0 -5.71228,-1.184335 -2.00823,-1.19722 -2.00823,-3.450039 0,-0.450572 0.0892,-1.016999 l 5.1098,-0.386193 q -0.11155,0.553556 -0.11155,0.914006 0,0.965491 0.75865,1.428935 0.78099,0.450562 2.23136,0.450562 2.07518,0 2.94541,-0.86251 0.6694,-0.643665 1.58427,-3.784747 l 3.36935,-11.30273 z m 174.391357,86.532991 3.04966,-0.39151 q 0.27532,2.02741 1.11186,2.9782 0.84712,0.9508 2.27664,0.9508 1.51424,0 2.27665,-0.83893 0.773,-0.85292 0.773,-1.98547 0,-0.72709 -0.32827,-1.23043 -0.31767,-0.51735 -1.12244,-0.89486 -0.55063,-0.25169 -2.5096,-0.89488 -2.52019,-0.82494 -3.53675,-2.02742 -1.42952,-1.69185 -1.42952,-4.12474 0,-1.566 0.66711,-2.92229 0.6777,-1.37025 1.9378,-2.08334 1.27069,-0.7131 3.06023,-0.7131 2.92259,0 4.39446,1.69186 1.48248,1.69183 1.5566,4.51625 l -3.13437,0.18177 q -0.20119,-1.58 -0.86829,-2.26513 -0.65653,-0.69911 -1.98017,-0.69911 -1.36598,0 -2.13898,0.74106 -0.49768,0.4754 -0.49768,1.27238 0,0.72709 0.46591,1.24442 0.59298,0.65715 2.88023,1.37025 2.28723,0.71311 3.3779,1.48211 1.10127,0.75504 1.71543,2.08336 0.62475,1.31432 0.62475,3.25784 0,1.76178 -0.74123,3.29981 -0.74123,1.53804 -2.09662,2.29308 -1.35541,0.74105 -3.37792,0.74105 -2.94377,0 -4.52153,-1.78971 -1.57777,-1.8037 -1.88486,-5.24332 z m -8.92655,6.66949 0,-17.0303 -4.60624,0 0,-3.4676 12.33625,0 0,3.4676 -4.59566,0 0,17.0303 -3.13435,0 z m -18.77439,-6.66949 3.04966,-0.39151 q 0.27531,2.02741 1.11183,2.9782 0.84713,0.9508 2.27666,0.9508 1.51423,0 2.27665,-0.83893 0.773,-0.85292 0.773,-1.98547 0,-0.72709 -0.32827,-1.23043 -0.31767,-0.51735 -1.12244,-0.89486 -0.55062,-0.25169 -2.5096,-0.89488 -2.5202,-0.82494 -3.53675,-2.02742 -1.42952,-1.69185 -1.42952,-4.12474 0,-1.566 0.66711,-2.92229 0.6777,-1.37025 1.93781,-2.08334 1.27068,-0.7131 3.06022,-0.7131 2.92258,0 4.39446,1.69186 1.48247,1.69183 1.5566,4.51625 l -3.13437,0.18177 q -0.20119,-1.58 -0.86829,-2.26513 -0.65652,-0.69911 -1.98017,-0.69911 -1.36598,0 -2.13898,0.74106 -0.49768,0.4754 -0.49768,1.27238 0,0.72709 0.46591,1.24442 0.59298,0.65715 2.88023,1.37025 2.28723,0.71311 3.37789,1.48211 1.10127,0.75504 1.71544,2.08336 0.62475,1.31432 0.62475,3.25784 0,1.76178 -0.74123,3.29981 -0.74123,1.53804 -2.09664,2.29308 -1.3554,0.74105 -3.3779,0.74105 -2.94376,0 -4.52153,-1.78971 -1.57777,-1.8037 -1.88485,-5.24332 z m -5.31571,6.66949 0,-20.4979 3.13436,0 0,20.4979 -3.13436,0 z m -13.07746,0 0,-20.33011 3.13435,0 0,16.87651 7.79355,0 0,3.4536 -10.9279,0 z m -1.80014,0 -3.40969,0 -1.35539,-4.65605 -6.20518,0 -1.28129,4.65605 -3.32495,0 6.04634,-20.4979 3.31437,0 6.21579,20.4979 z m -5.77104,-8.10966 -2.13899,-7.60632 -2.09663,7.60632 4.23562,0 z m -14.33756,8.10966 0,-20.4979 3.13435,0 0,20.4979 -3.13435,0 z m -5.64397,-7.53641 3.03905,1.27238 q -0.69887,3.35573 -2.32959,4.99166 -1.62011,1.62195 -4.11914,1.62195 -3.092,0 -5.08274,-2.78248 -1.99073,-2.79643 -1.99073,-7.63428 0,-5.11749 2.00133,-7.94189 2.00133,-2.83839 5.26274,-2.83839 2.84848,0 4.62743,2.22318 1.05889,1.31432 1.58835,3.77519 l -3.10259,0.97877 q -0.27532,-1.59397 -1.15421,-2.51682 -0.86829,-0.92282 -2.11781,-0.92282 -1.72602,0 -2.8061,1.63593 -1.0695,1.63591 -1.0695,5.29924 0,3.88704 1.05891,5.53697 1.05892,1.6499 2.75317,1.6499 1.2495,0 2.14956,-1.04866 0.90008,-1.04868 1.29187,-3.29983 z m -24.41833,7.53641 0,-20.4979 11.51028,0 0,3.4676 -8.37594,0 0,4.5442 7.79355,0 0,3.4536 -7.79355,0 0,5.5789 8.67244,0 0,3.4536 -11.80678,0 z m -14.48583,0 0,-20.4979 5.0298,0 q 2.85904,0 3.72735,0.30761 1.33421,0.46141 2.23429,2.01344 0.90006,1.53804 0.90006,3.98492 0,1.8876 -0.51887,3.17396 -0.51885,1.28635 -1.32362,2.02742 -0.79419,0.72709 -1.62013,0.96478 -1.12245,0.29362 -3.25083,0.29362 l -2.04368,0 0,7.73215 -3.13437,0 z m 3.13437,-17.0303 0,5.81659 1.71541,0 q 1.85309,0 2.47784,-0.3216 0.62475,-0.32159 0.9742,-1.00672 0.36002,-0.68512 0.36002,-1.59398 0,-1.11856 -0.49768,-1.84563 -0.49769,-0.72709 -1.26011,-0.90884 -0.56121,-0.13982 -2.25545,-0.13982 l -1.51423,0 z m -18.41437,10.36081 3.04966,-0.39151 q 0.27531,2.02741 1.11183,2.9782 0.84713,0.9508 2.27666,0.9508 1.51423,0 2.27663,-0.83893 0.77302,-0.85292 0.77302,-1.98547 0,-0.72709 -0.32827,-1.23043 -0.31767,-0.51735 -1.12244,-0.89486 -0.55062,-0.25169 -2.5096,-0.89488 -2.5202,-0.82494 -3.53675,-2.02742 -1.42952,-1.69185 -1.42952,-4.12474 0,-1.566 0.66711,-2.92229 0.6777,-1.37025 1.93781,-2.08334 1.27068,-0.7131 3.06022,-0.7131 2.92258,0 4.39446,1.69186 1.48245,1.69183 1.5566,4.51625 l -3.13437,0.18177 q -0.20119,-1.58 -0.86831,-2.26513 -0.6565,-0.69911 -1.98015,-0.69911 -1.36598,0 -2.13899,0.74106 -0.49767,0.4754 -0.49767,1.27238 0,0.72709 0.46591,1.24442 0.59298,0.65715 2.88021,1.37025 2.28725,0.71311 3.37791,1.48211 1.10127,0.75504 1.71544,2.08336 0.62475,1.31432 0.62475,3.25784 0,1.76178 -0.74125,3.29981 -0.74123,1.53804 -2.09662,2.29308 -1.3554,0.74105 -3.3779,0.74105 -2.94376,0 -4.52151,-1.78971 -1.57777,-1.8037 -1.88487,-5.24332 z m -19.70623,6.66949 0,-20.4979 11.5103,0 0,3.4676 -8.37593,0 0,4.5442 7.79353,0 0,3.4536 -7.79353,0 0,5.5789 8.67243,0 0,3.4536 -11.8068,0 z m -13.17276,0 0,-20.33011 3.13435,0 0,16.87651 7.79354,0 0,3.4536 -10.92789,0 z m -5.82399,-7.53641 3.03906,1.27238 q -0.69887,3.35573 -2.32958,4.99166 -1.62014,1.62195 -4.11914,1.62195 -3.09202,0 -5.082747,-2.78248 -1.99076,-2.79643 -1.99076,-7.63428 0,-5.11749 2.00135,-7.94189 2.001327,-2.83839 5.262737,-2.83839 2.84846,0 4.62742,2.22318 1.05891,1.31432 1.58837,3.77519 l -3.10258,0.97877 q -0.27533,-1.59397 -1.15423,-2.51682 -0.86829,-0.92282 -2.11781,-0.92282 -1.726,0 -2.8061,1.63593 -1.06948,1.63591 -1.06948,5.29924 0,3.88704 1.0589,5.53697 1.05891,1.6499 2.75316,1.6499 1.2495,0 2.14958,-1.04866 0.90006,-1.04868 1.29185,-3.29983 z m -16.042397,7.53641 0,-20.4979 3.13434,0 0,20.4979 -3.13434,0 z m -15.56591,0 0,-20.4979 3.13435,0 0,8.06772 6.14166,0 0,-8.06772 3.13437,0 0,20.4979 -3.13437,0 0,-8.96258 -6.14166,0 0,8.96258 -3.13435,0 z m -14.49641,0 0,-20.4979 11.5103,0 0,3.4676 -8.37594,0 0,4.5442 7.79353,0 0,3.4536 -7.79353,0 0,5.5789 8.67243,0 0,3.4536 -11.80679,0 z m -10.52551,0 -5.54866,-20.4979 3.39908,0 3.92853,15.1707 3.80148,-15.1707 3.32497,0 -5.55926,20.4979 -3.34614,0 z m 199.192997,-43.50925 13.74975,0 0,9.8865 q 0,1.47247 2.82661,1.47247 2.7308,0 2.7308,-1.47247 l 0,-5.10852 q 0,-2.3439 -4.98249,-5.49918 -9.62962,-5.85977 -11.97715,-7.87314 -2.34752,-2.01337 -2.34752,-4.41738 l 0,-4.83806 q 0,-8.384008 17.43873,-8.384008 15.61819,0 15.61819,7.632738 l 0,7.45244 -13.74976,0 0,-7.93325 q 0,-1.29213 -2.25171,-1.29213 -2.63496,0 -2.63496,2.49414 l 0.28743,2.79466 q 0,2.40402 5.07831,5.58935 9.438,5.67947 11.97715,7.93323 2.58706,2.25378 2.58706,5.10854 l 0,5.49918 q 0,8.59434 -17.48663,8.59434 -16.86381,0 -16.86381,-7.81304 l 0,-9.82641 z m -1.96425,17.3089 -15.09121,0 Q 216.9164,105.563 216.9164,96.99871 l 0,-0.0601 0.0958,-2.5843 q 0.14371,-5.37899 0.14371,-5.49918 0,-2.19367 -4.69503,-2.19367 l 0,20.67451 -15.09119,0 0,-43.09193 18.63643,0 q 6.37183,0 11.06687,1.83305 4.74296,1.83307 4.74296,5.79969 l 0,5.16863 q 0,5.01838 -9.34218,6.79134 9.39007,1.38231 9.39007,7.12189 l -0.23953,4.71787 q 0,10.33726 2.82661,11.71957 z m -17.29501,-28.24716 0,-7.09184 q 0,-2.25375 -4.69503,-2.25375 l 0,11.6294 q 4.69503,0 4.69503,-2.28381 z m -57.68187,20.82476 0,-27.73628 q 0,-8.384008 17.34289,-8.384008 17.10334,0 17.10334,8.323888 l 0,27.73631 q 0,3.75626 -4.79086,5.79969 -4.74293,2.01335 -12.4083,2.01335 -17.24707,0 -17.24707,-7.75295 z m 19.6904,0.45076 0,-29.35901 q 0,-1.29216 -2.44333,-1.29216 -2.53916,0 -2.53916,1.29216 l 0,29.35901 q 0,1.29217 2.53916,1.29217 2.44333,0 2.44333,-1.29217 z m -22.3733,-30.56101 -8.43189,0 0,37.47255 -15.09121,0 0,-37.47255 -8.4319,0 0,-5.619386 31.955,0 0,5.619386 z m -69.17996,30.11025 0,-27.73628 q 0,-8.384008 17.34291,-8.384008 17.10334,0 17.10334,8.323888 l 0,27.73631 q 0,3.75626 -4.79083,5.79969 -4.74297,2.01335 -12.40833,2.01335 -17.24709,0 -17.24709,-7.75295 z m 19.69043,0.45076 0,-29.35901 q 0,-1.29216 -2.44334,-1.29216 -2.53917,0 -2.53917,1.29216 l 0,29.35901 q 0,1.29217 2.53917,1.29217 2.44334,0 2.44334,-1.29217 z m -22.948217,6.91154 -13.46228,0 0,-24.19037 -7.85701,24.19037 -10.39616,0 -9.00679,-24.19037 0,24.19037 -11.78551,0 0,-43.091936 19.40294,0 6.89886,22.357316 5.98856,-22.357316 20.21739,0 0,43.091936 z"
       inkscape:connector-curvature="0" />
  </g>
</svg>
